<?xml version="1.0" encoding="UTF-8" standalone="no"?>
<svg
   xmlns:dc="http://purl.org/dc/elements/1.1/"
   xmlns:cc="http://creativecommons.org/ns#"
   xmlns:rdf="http://www.w3.org/1999/02/22-rdf-syntax-ns#"
   xmlns:svg="http://www.w3.org/2000/svg"
   xmlns="http://www.w3.org/2000/svg"
   xmlns:sodipodi="http://sodipodi.sourceforge.net/DTD/sodipodi-0.dtd"
   xmlns:inkscape="http://www.inkscape.org/namespaces/inkscape"
   viewBox="0 0 590.90918 188.7292"
   height="188.7292"
   width="590.90918"
   xml:space="preserve"
   id="svg2"
   version="1.1"
   sodipodi:docname="aventum_black_logo.svg"
   inkscape:version="0.92.4 (5da689c313, 2019-01-14)"><sodipodi:namedview
     pagecolor="#ffffff"
     bordercolor="#666666"
     borderopacity="1"
     objecttolerance="10"
     gridtolerance="10"
     guidetolerance="10"
     inkscape:pageopacity="0"
     inkscape:pageshadow="2"
     inkscape:window-width="1920"
     inkscape:window-height="1013"
     id="namedview106"
     showgrid="false"
     inkscape:zoom="0.78670684"
     inkscape:cx="255.14666"
     inkscape:cy="112.17119"
     inkscape:window-x="-9"
     inkscape:window-y="-9"
     inkscape:window-maximized="1"
     inkscape:current-layer="svg2"
     fit-margin-top="0"
     fit-margin-left="0"
     fit-margin-right="0"
     fit-margin-bottom="0" /><metadata
     id="metadata8"><rdf:RDF><cc:Work
         rdf:about=""><dc:format>image/svg+xml</dc:format><dc:type
           rdf:resource="http://purl.org/dc/dcmitype/StillImage" /><dc:title></dc:title></cc:Work></rdf:RDF></metadata><defs
     id="defs6"><clipPath
       id="clipPath34"
       clipPathUnits="userSpaceOnUse"><path
         id="path32"
         d="M 0,449.977 H 593.572 V 0 H 0 Z"
         inkscape:connector-curvature="0" /></clipPath><clipPath
       id="clipPath54"
       clipPathUnits="userSpaceOnUse"><path
         id="path52"
         d="m 162.32,299.185 h 44.322 V 261.544 H 162.32 Z"
         inkscape:connector-curvature="0" /></clipPath><clipPath
       id="clipPath70"
       clipPathUnits="userSpaceOnUse"><path
         id="path68"
         d="m 211.041,266.581 h 19.945 v -15.513 h -19.945 z"
         inkscape:connector-curvature="0" /></clipPath><clipPath
       id="clipPath86"
       clipPathUnits="userSpaceOnUse"><path
         id="path84"
         d="m 233.941,266.581 h 26.023 v -21.792 h -26.023 z"
         inkscape:connector-curvature="0" /></clipPath><clipPath
       id="clipPath102"
       clipPathUnits="userSpaceOnUse"><path
         id="path100"
         d="m 257.546,266.581 h 42.241 v -28.105 h -42.241 z"
         inkscape:connector-curvature="0" /></clipPath><clipPath
       id="clipPath118"
       clipPathUnits="userSpaceOnUse"><path
         id="path116"
         d="m 296.026,266.581 h 54.429 v -40.965 h -54.429 z"
         inkscape:connector-curvature="0" /></clipPath><clipPath
       id="clipPath134"
       clipPathUnits="userSpaceOnUse"><path
         id="path132"
         d="m 350.959,266.581 h 48.184 v -45.733 h -48.184 z"
         inkscape:connector-curvature="0" /></clipPath><clipPath
       id="clipPath150"
       clipPathUnits="userSpaceOnUse"><path
         id="path148"
         d="m 390.413,266.581 h 32.402 V 217.86 h -32.402 z"
         inkscape:connector-curvature="0" /></clipPath><clipPath
       id="clipPath166"
       clipPathUnits="userSpaceOnUse"><path
         id="path164"
         d="m 417.376,266.581 h 32.939 V 216.92 h -32.939 z"
         inkscape:connector-curvature="0" /></clipPath><clipPath
       id="clipPath182"
       clipPathUnits="userSpaceOnUse"><path
         id="path180"
         d="m 441.854,266.581 h 76.523 v -49.695 h -76.523 z"
         inkscape:connector-curvature="0" /></clipPath></defs><g
     transform="matrix(1.3333333,0,0,-1.3333333,-100.26013,398.91306)"
     id="g10"><g
       transform="translate(240.8463,266.5764)"
       id="g12"><path
         id="path14"
         style="fill:#000000;fill-opacity:1;fill-rule:nonzero;stroke:none"
         d="m 0,0 -6.908,-17.153 -8.001,-19.78 -0.236,-0.561 -0.413,-1.063 -0.03,-0.088 -0.531,-1.299 -0.325,-0.856 -0.059,-0.118 -0.502,-1.27 0.177,1.211 0.059,0.177 0.118,0.767 0.236,1.329 v 0.029 l 0.237,1.447 0.029,0.236 3.661,21.493 L -9.86,0 h -18.6 l -1.358,-10.126 -2.509,-19.16 -0.266,-1.919 -0.177,-1.211 -0.797,-6.17 -0.236,-1.889 -0.059,-0.355 -0.119,-1.033 -0.029,-0.118 -0.059,-0.384 -0.148,-1.063 v -0.088 l -0.295,-2.274 -0.236,-1.653 -1.211,-9.211 -4.369,-32.977 h 20.135 l 20.223,46.203 0.354,0.738 0.295,0.709 0.266,0.62 1.446,3.277 0.03,0.088 0.531,1.181 L 3.1,-36.46 9.536,-21.788 19.101,0 Z"
         inkscape:connector-curvature="0" /></g><g
       transform="translate(278.4581,250.4276)"
       id="g16"><path
         id="path18"
         style="fill:#000000;fill-opacity:1;fill-rule:nonzero;stroke:none"
         d="m 0,0 h 16.533 l 4.782,16.149 h -35.25 l -6.967,-23.677 -19.426,-65.954 h 34.66 l 6.17,17.005 h -17.153 l 6.171,20.843 H 5.668 l 4.665,15.883 H -5.816 l 2.303,7.794 z"
         inkscape:connector-curvature="0" /></g><g
       transform="translate(332.4552,266.5764)"
       id="g20"><path
         id="path22"
         style="fill:#000000;fill-opacity:1;fill-rule:nonzero;stroke:none"
         d="M 0,0 -10.244,-34.66 -10.835,0 h -15.942 l -9.654,-32.947 -16.68,-56.684 h 17.477 l 10.717,35.752 1.624,-35.752 h 14.908 l 14.319,48.654 v 0.029 L 18.009,0 Z"
         inkscape:connector-curvature="0" /></g><g
       transform="translate(355.7486,266.5764)"
       id="g24"><path
         id="path26"
         style="fill:#000000;fill-opacity:1;fill-rule:nonzero;stroke:none"
         d="M 0,0 -4.783,-16.149 H 8.03 L -0.089,-43.546 -13.787,-89.631 H 4.694 l 12.754,43.9 8.591,29.582 H 38.586 L 43.398,0 Z"
         inkscape:connector-curvature="0" /></g><g
       id="g28"><g
         clip-path="url(#clipPath34)"
         id="g30"><g
           transform="translate(431.7988,266.5764)"
           id="g36"><path
             id="path38"
             style="fill:#000000;fill-opacity:1;fill-rule:nonzero;stroke:none"
             d="m 0,0 -14.436,-49.155 -7.47,-25.419 h -4.812 c -2.716,0 -3.956,0.974 -3.1,3.69 l 6.525,22.172 L -8.975,0 h -18.481 l -13.935,-47.443 -7.528,-25.566 c -3.572,-11.81 2.834,-16.622 11.957,-16.622 h 10.716 l -2.096,-7.026 21.463,10.451 L 3.867,-49.657 18.511,0 Z"
             inkscape:connector-curvature="0" /></g><g
           transform="translate(499.1399,266.5764)"
           id="g40"><path
             id="path42"
             style="fill:#000000;fill-opacity:1;fill-rule:nonzero;stroke:none"
             d="M 0,0 -20.961,-31.323 -24.179,0 H -42.66 l -14.643,-49.686 -11.75,-39.945 h 18.658 l 11.927,40.299 2.834,9.506 1.299,-9.329 2.657,-18.658 14.407,19.691 6.052,8.296 -2.361,-7.942 -12.311,-41.863 H -7.292 L 5.727,-45.642 19.219,0 Z"
             inkscape:connector-curvature="0" /></g><g
           transform="translate(181.1811,299.1695)"
           id="g44"><path
             id="path46"
             style="fill:#000000;fill-opacity:1;fill-rule:nonzero;stroke:none"
             d="m 0,0 -18.835,-25.626 h -0.03 v -0.029 l -2.51,-3.425 -22.26,-30.261 -4.221,-5.727 -3.661,-4.93 -19.396,-26.423 -13.197,-17.92 -14.614,-19.869 h 23.618 l 13.079,18.038 5.343,7.351 2.657,3.691 h 0.119 l 3.513,4.723 2.598,3.455 0.974,1.299 1.565,2.096 2.863,3.808 2.717,3.602 11.307,15.499 4.31,5.846 2.303,3.188 14.466,19.78 -4.045,-13.993 h -0.118 l -1.24,-4.252 -1.033,-3.601 -1.771,-6.171 -3.218,-10.952 -0.532,-1.86 -0.354,-1.299 -0.207,-0.68 -0.59,-2.007 -0.797,-2.716 -0.266,-1.004 -0.236,-0.797 -0.679,-2.362 -0.118,-0.384 -0.679,-2.273 -2.569,-8.945 -2.657,-8.975 -0.472,-1.712 -2.037,-7.086 h 20.134 l 6.731,22.083 -0.236,-0.177 1.388,4.812 0.147,-0.207 0.561,1.978 2.303,7.794 0.561,1.949 0.413,1.417 0.62,2.214 0.296,1.004 0.56,1.771 0.266,0.916 0.709,2.421 1.83,6.376 2.096,7.115 1.476,4.931 4.311,14.938 1.151,3.927 v 0.029 L 25.449,0 Z"
             inkscape:connector-curvature="0" /></g><g
           id="g48"><g
             id="g50" /><g
             id="g62"><g
               style="opacity:0.19999701"
               id="g60"
               clip-path="url(#clipPath54)"><g
                 id="g58"
                 transform="translate(206.6424,299.1848)"><path
                   id="path56"
                   style="fill:#1c1c1c;fill-opacity:1;fill-rule:nonzero;stroke:none"
                   d="m 0,0 -11.047,-37.641 c -13.196,4.433 -24.445,8.596 -33.276,11.988 L -25.452,0 Z"
                   inkscape:connector-curvature="0" /></g></g></g></g><g
           id="g64"><g
             id="g66" /><g
             id="g78"><g
               style="opacity:0.19999701"
               id="g76"
               clip-path="url(#clipPath70)"><g
                 id="g74"
                 transform="translate(212.3841,266.5808)"><path
                   id="path72"
                   style="fill:#1c1c1c;fill-opacity:1;fill-rule:nonzero;stroke:none"
                   d="M 0,0 H 18.602 L 15.983,-15.513 C 9.973,-13.7 4.197,-11.92 -1.343,-10.141 Z"
                   inkscape:connector-curvature="0" /></g></g></g></g><g
           id="g80"><g
             id="g82" /><g
             id="g94"><g
               style="opacity:0.19999701"
               id="g92"
               clip-path="url(#clipPath86)"><g
                 id="g90"
                 transform="translate(259.9636,266.5808)"><path
                   id="path88"
                   style="fill:#1c1c1c;fill-opacity:1;fill-rule:nonzero;stroke:none"
                   d="m 0,0 -9.57,-21.792 c -5.641,1.545 -11.147,3.089 -16.453,4.634 L -19.105,0 Z"
                   inkscape:connector-curvature="0" /></g></g></g></g><g
           id="g96"><g
             id="g98" /><g
             id="g110"><g
               style="opacity:0.19999701"
               id="g108"
               clip-path="url(#clipPath102)"><g
                 id="g106"
                 transform="translate(299.7868,266.5808)"><path
                   id="path104"
                   style="fill:#1c1c1c;fill-opacity:1;fill-rule:nonzero;stroke:none"
                   d="m 0,0 -4.802,-16.151 h -16.52 l -3.526,-11.953 c -5.943,1.443 -11.752,2.921 -17.393,4.432 L -35.257,0 Z"
                   inkscape:connector-curvature="0" /></g></g></g></g><g
           id="g112"><g
             id="g114" /><g
             id="g126"><g
               style="opacity:0.19999701"
               id="g124"
               clip-path="url(#clipPath118)"><g
                 id="g122"
                 transform="translate(332.4579,266.5808)"><path
                   id="path120"
                   style="fill:#1c1c1c;fill-opacity:1;fill-rule:nonzero;stroke:none"
                   d="M 0,0 H 17.998 L 5.943,-40.965 c -14.572,2.351 -28.742,5.07 -42.375,8.025 L -26.761,0 h 15.915 l 0.605,-34.652 z"
                   inkscape:connector-curvature="0" /></g></g></g></g><g
           id="g128"><g
             id="g130" /><g
             id="g142"><g
               style="opacity:0.19999701"
               id="g140"
               clip-path="url(#clipPath134)"><g
                 id="g138"
                 transform="translate(394.3415,250.43)"><path
                   id="path136"
                   style="fill:#1c1c1c;fill-opacity:1;fill-rule:nonzero;stroke:none"
                   d="m 0,0 h -12.558 l -8.596,-29.582 c -5.91,0.672 -11.752,1.41 -17.528,2.183 L -30.556,0 h -12.826 l 4.801,16.151 H 4.802 Z"
                   inkscape:connector-curvature="0" /></g></g></g></g><g
           id="g144"><g
             id="g146" /><g
             id="g158"><g
               style="opacity:0.19999701"
               id="g156"
               clip-path="url(#clipPath150)"><g
                 id="g154"
                 transform="translate(422.8152,266.5808)"><path
                   id="path152"
                   style="fill:#1c1c1c;fill-opacity:1;fill-rule:nonzero;stroke:none"
                   d="m 0,0 -14.304,-48.721 c -6.077,0.335 -12.088,0.772 -18.098,1.276 L -18.468,0 Z"
                   inkscape:connector-curvature="0" /></g></g></g></g><g
           id="g160"><g
             id="g162" /><g
             id="g174"><g
               style="opacity:0.19999701"
               id="g172"
               clip-path="url(#clipPath166)"><g
                 id="g170"
                 transform="translate(450.3153,266.5808)"><path
                   id="path168"
                   style="fill:#1c1c1c;fill-opacity:1;fill-rule:nonzero;stroke:none"
                   d="m 0,0 -14.64,-49.661 c -6.111,0.067 -12.222,0.235 -18.3,0.503 L -18.501,0 Z"
                   inkscape:connector-curvature="0" /></g></g></g></g><g
           id="g176"><g
             id="g178" /><g
             id="g190"><g
               style="opacity:0.19999701"
               id="g188"
               clip-path="url(#clipPath182)"><g
                 id="g186"
                 transform="translate(518.3773,266.5808)"><path
                   id="path184"
                   style="fill:#1c1c1c;fill-opacity:1;fill-rule:nonzero;stroke:none"
                   d="m 0,0 -13.498,-45.632 c -6.413,-0.873 -12.86,-1.578 -19.307,-2.149 l 2.35,7.958 -6.044,-8.294 c -5.675,-0.436 -11.383,-0.806 -17.057,-1.041 l -1.31,9.335 -2.82,-9.503 c -6.279,-0.235 -12.558,-0.369 -18.837,-0.369 L -61.884,0 h 18.468 L -40.192,-31.328 -19.24,0 Z"
                   inkscape:connector-curvature="0" /></g></g></g></g><g
           transform="translate(77.0251,157.6379)"
           id="g192"><path
             id="path194"
             style="fill:#ffffff;fill-opacity:1;fill-rule:nonzero;stroke:none"
             d="M 0,0 C 0,0.029 0.03,0.059 0.059,0.088 L 0.03,0 Z"
             inkscape:connector-curvature="0" /></g><g
           transform="translate(243.9461,230.116)"
           id="g196"><path
             id="path198"
             style="fill:#ffffff;fill-opacity:1;fill-rule:nonzero;stroke:none"
             d="m 0,0 -0.148,-0.354 c -4.576,-0.207 -10.923,-0.709 -18.51,-1.742 -0.266,-0.03 -0.561,-0.089 -0.856,-0.118 -0.089,-0.03 -0.207,-0.03 -0.325,-0.03 -5.226,-0.767 -11.012,-1.771 -17.241,-3.159 -7.499,-1.623 -15.559,-3.779 -23.973,-6.583 -7.528,-2.539 -15.322,-5.61 -23.175,-9.329 -13.669,-6.436 -27.515,-14.85 -40.564,-25.803 -6.407,-5.373 -12.577,-11.366 -18.481,-18.039 h -25.478 c 4.546,4.99 11.75,12.134 21.876,19.869 10.628,8.148 24.445,16.946 41.715,24.593 7.263,3.247 15.145,6.258 23.678,8.945 6.996,2.214 14.407,4.192 22.26,5.875 7.144,1.535 14.672,2.805 22.555,3.749 5.609,0.709 11.425,1.24 17.418,1.595 0.414,0.029 0.827,0.059 1.24,0.059 C -12.163,-0.118 -6.17,0.03 0,0"
             inkscape:connector-curvature="0" /></g><g
           transform="translate(77.0251,157.6379)"
           id="g200"><path
             id="path202"
             style="fill:#ff002b;fill-opacity:1;fill-rule:nonzero;stroke:none"
             d="M 0,0 C 0,0.029 0.03,0.059 0.059,0.088 L 0.03,0 Z"
             inkscape:connector-curvature="0" /></g><g
           transform="translate(243.2672,228.5807)"
           id="g204"><path
             id="path206"
             style="fill:#000000;fill-opacity:1;fill-rule:nonzero;stroke:none"
             d="m 0,0 -0.03,-0.088 c -3.69,-0.178 -10.155,-0.621 -18.51,-1.86 l -0.532,-0.089 c -5.225,-0.768 -11.13,-1.86 -17.566,-3.395 -7.528,-1.742 -15.765,-4.104 -24.356,-7.233 -7.617,-2.775 -15.529,-6.141 -23.47,-10.274 -17.98,-9.27 -36.225,-22.349 -51.99,-40.682 h -23.618 c 9.064,9.949 25.744,25.389 51.163,38.556 8.148,4.222 17.212,8.208 27.22,11.691 6.997,2.48 14.495,4.694 22.437,6.613 7.292,1.713 14.938,3.159 23.028,4.281 5.491,0.738 11.189,1.358 17.064,1.771 h 0.325 c 0.265,0.03 0.531,0.06 0.826,0.06 C -12.193,-0.236 -6.2,-0.03 0,0"
             inkscape:connector-curvature="0" /></g><g
           transform="translate(77.0251,157.6379)"
           id="g208"><path
             id="path210"
             style="fill:#ffffff;fill-opacity:1;fill-rule:nonzero;stroke:none"
             d="M 0,0 C 0,0.029 0.03,0.059 0.059,0.088 L 0.03,0 Z"
             inkscape:connector-curvature="0" /></g></g></g></g></svg>