<?xml version="1.0" encoding="UTF-8" standalone="no"?>
<!-- Created with Inkscape (http://www.inkscape.org/) -->

<svg
   xmlns:dc="http://purl.org/dc/elements/1.1/"
   xmlns:cc="http://creativecommons.org/ns#"
   xmlns:rdf="http://www.w3.org/1999/02/22-rdf-syntax-ns#"
   xmlns:svg="http://www.w3.org/2000/svg"
   xmlns="http://www.w3.org/2000/svg"
   xmlns:sodipodi="http://sodipodi.sourceforge.net/DTD/sodipodi-0.dtd"
   xmlns:inkscape="http://www.inkscape.org/namespaces/inkscape"
   width="173.67497mm"
   height="265.14282mm"
   viewBox="0 0 173.67497 265.14282"
   version="1.1"
   id="svg8"
   inkscape:version="0.92.4 (5da689c313, 2019-01-14)">
  <defs
     id="defs2">
    <inkscape:path-effect
       effect="spiro"
       id="path-effect4546"
       is_visible="true" />
  </defs>
  <sodipodi:namedview
     id="base"
     pagecolor="#ffffff"
     bordercolor="#666666"
     borderopacity="1.0"
     inkscape:pageopacity="0.0"
     inkscape:pageshadow="2"
     inkscape:zoom="0.49497475"
     inkscape:cx="-288.4187"
     inkscape:cy="363.92794"
     inkscape:document-units="mm"
     inkscape:current-layer="layer1"
     showgrid="false"
     fit-margin-top="0"
     fit-margin-left="0"
     fit-margin-right="0"
     fit-margin-bottom="0"
     inkscape:window-width="1920"
     inkscape:window-height="1013"
     inkscape:window-x="-9"
     inkscape:window-y="-9"
     inkscape:window-maximized="1" />
  <metadata
     id="metadata5">
    <rdf:RDF>
      <cc:Work
         rdf:about="">
        <dc:format>image/svg+xml</dc:format>
        <dc:type
           rdf:resource="http://purl.org/dc/dcmitype/StillImage" />
        <dc:title></dc:title>
      </cc:Work>
    </rdf:RDF>
  </metadata>
  <g
     inkscape:label="Layer 1"
     inkscape:groupmode="layer"
     id="layer1"
     transform="translate(-28.559223,-3.8468014)">
    <path
       style="fill:#ffe6ea;fill-opacity:1;stroke:none;stroke-width:0.26458332px;stroke-linecap:butt;stroke-linejoin:miter;stroke-opacity:1"
       d="M 102.6315,8.3489106 C 98.240806,5.5452085 93.063295,4.0254628 87.856361,3.8618389 82.649426,3.6982151 77.423352,4.8754656 72.722567,7.1208074 63.320998,11.611491 56.254438,20.295781 52.675062,30.080658 c -3.579375,9.784876 -3.857749,20.580436 -1.947213,30.822779 1.910535,10.242344 5.931795,19.988893 10.74414,29.229947 6.924956,13.297856 15.557873,25.772116 20.895565,39.782726 2.668846,7.0053 4.490431,14.38994 4.707074,21.88328 0.216642,7.49334 -1.221739,15.11082 -4.755614,21.72208 -3.913551,7.32157 -10.188257,13.10374 -16.828385,18.08671 -6.640128,4.98296 -13.76401,9.32049 -20.160611,14.61243 -6.396601,5.29195 -12.148103,11.72007 -14.984686,19.52231 -1.418292,3.90113 -2.073704,8.10533 -1.667228,12.23632 0.406475,4.13099 1.899502,8.18225 4.463318,11.44678 3.96593,5.04986 10.263483,7.91718 16.637332,8.69415 6.373849,0.77698 12.844586,-0.36197 19.003492,-2.17788 6.158906,-1.8159 12.097836,-4.30341 18.194899,-6.31723 6.097064,-2.01381 12.442469,-3.56307 18.861585,-3.40627 8.7324,0.21331 17.08486,3.56312 24.86533,7.53359 7.78047,3.97048 15.24555,8.62256 23.39365,11.7704 8.1481,3.14783 17.25365,4.71821 25.63586,2.26082 4.19111,-1.2287 8.11876,-3.47169 11.10287,-6.66076 2.98411,-3.18907 4.98541,-7.34368 5.33939,-11.69682 0.2545,-3.12979 -0.33559,-6.30291 -1.52953,-9.2072 -1.19394,-2.90428 -2.9804,-5.54564 -5.09684,-7.86534 -4.23289,-4.63942 -9.70218,-7.95281 -15.22315,-10.94621 -5.52096,-2.9934 -11.21181,-5.75608 -16.21576,-9.55107 -5.00396,-3.79498 -9.35545,-8.78551 -11.11231,-14.81501 -0.99677,-3.42089 -1.12183,-7.06931 -0.55919,-10.58775 0.56265,-3.51845 1.80131,-6.91056 3.46087,-10.06363 3.31913,-6.30616 8.25417,-11.59826 13.30528,-16.62523 5.0511,-5.02697 10.31186,-9.91054 14.4894,-15.68394 4.17755,-5.77341 7.25412,-12.61046 7.25591,-19.73676 0.002,-6.68923 -2.72683,-13.18175 -6.73589,-18.53649 -4.00907,-5.35474 -9.24522,-9.671257 -14.724,-13.509059 -10.95757,-7.675602 -23.43729,-13.977059 -31.17138,-24.893425 -6.48372,-9.151517 -8.84792,-20.47999 -12.11784,-31.208295 -1.63496,-5.364152 -3.54386,-10.681946 -6.33404,-15.546319 -2.79018,-4.864373 -6.50949,-9.28333 -11.23586,-12.3013814 z"
       id="path4544"
       inkscape:connector-curvature="0"
       inkscape:path-effect="#path-effect4546"
       inkscape:original-d="M 102.6315,8.3489106 C 72.87522,-5.548844 84.635614,79.442338 61.471989,90.133384 38.308367,100.82443 78.042966,147.86334 82.319014,173.52147 c 4.276048,25.65814 -37.59565,48.99915 -49.177592,75.90455 -11.581945,26.90539 48.465136,-2.13842 72.697308,-3.20723 24.23217,-1.06882 60.225,2.13789 90.3371,3.20723 30.1121,1.06934 -40.80288,-41.33795 -49.17759,-52.38483 -8.37471,-11.04688 60.212,-52.0569 37.95227,-72.69731 C 171.27318,111.66154 160.38941,72.702295 132.31924,67.404906 114.17202,63.980173 115.70832,14.456481 102.6315,8.3489106 Z"
       sodipodi:nodetypes="ssssssssss" />
  </g>
</svg>
